<?xml version="1.0" encoding="UTF-8" standalone="no"?>
<!-- Created with Inkscape (http://www.inkscape.org/) -->

<svg
   version="1.1"
   id="svg2"
   width="100pt"
   height="100pt"
   viewBox="0 0 240 143.03999"
   sodipodi:docname="collection_of_grunge_backgrounds_2802 (3-я копия).svg"
   inkscape:version="1.1.2 (0a00cf5339, 2022-02-04)"
   xmlns:inkscape="http://www.inkscape.org/namespaces/inkscape"
   xmlns:sodipodi="http://sodipodi.sourceforge.net/DTD/sodipodi-0.dtd"
   xmlns:xlink="http://www.w3.org/1999/xlink"
   xmlns="http://www.w3.org/2000/svg"
   xmlns:svg="http://www.w3.org/2000/svg">

    <path
      fill-rule="evenodd"
       d="m 58.88,141.46155 c 0,-0.16414 -0.288,-0.38984 -0.64,-0.50156 -0.939987,-0.29834 -0.779603,-1.32135 0.307869,-1.96374 0.779155,-0.46025 0.878832,-0.6438 0.56,-1.03117 -0.329466,-0.40029 -0.26088,-0.43963 0.455517,-0.26126 0.55222,0.13749 0.972364,0.0546 1.216992,-0.24019 0.295564,-0.35613 0.253078,-0.47767 -0.203386,-0.58181 -0.797485,-0.18194 1.616045,-0.84316 4.22337,-1.15706 1.143801,-0.1377 2.079638,-0.1321 2.079638,0.0125 0,0.14454 -0.432,0.2628 -0.96,0.2628 -0.64,0 -0.96,0.16 -0.96,0.48 0,0.31701 -0.317091,0.48 -0.933827,0.48 -0.513607,0 -1.161607,0.0874 -1.44,0.19423 -0.877728,0.33682 -0.549322,0.6998 0.533827,0.59003 3.702486,-0.37521 5.04,-0.41966 5.04,-0.16749 0,0.15784 -0.542944,0.3787 -1.206547,0.49082 -0.6636,0.11211 -1.4196,0.35204 -1.68,0.53318 -0.361939,0.25176 -0.266186,0.2962 0.406547,0.18865 1.067062,-0.17058 1.130963,6.4e-4 0.16,0.42856 -0.560947,0.24725 -0.401891,0.27932 0.72,0.14515 1.031725,-0.12339 1.303907,-0.0802 0.96,0.15233 -0.402429,0.2721 -0.363645,0.35644 0.24,0.52187 0.853946,0.23402 0.955702,0.7453 0.16,0.80393 -1.234915,0.091 -2.247197,0.23122 -4.08,0.56518 -2.355149,0.42914 -4.96,0.45809 -4.96,0.0551 z m 14.720746,-1.6211 c -0.304832,-0.1884 -0.163642,-0.29863 0.478793,-0.37382 1.215165,-0.14223 1.462871,-0.90664 0.293795,-0.90664 -0.484,0 -0.798364,-0.0816 -0.698585,-0.18142 0.240045,-0.24004 3.785123,-0.97505 6.094582,-1.26359 1.675658,-0.20936 2.906355,-0.79499 1.670669,-0.79499 -0.284774,0 -0.428774,-0.144 -0.32,-0.32 0.115629,-0.18709 -0.242026,-0.33089 -0.861114,-0.34622 -1.051132,-0.026 -1.047104,-0.0316 0.549805,-0.76251 1.468557,-0.67215 3.563543,-1.22713 6.071309,-1.60835 1.698237,-0.25815 2.05664,-0.35283 2.310739,-0.6104 0.137095,-0.13897 -0.249315,-0.17488 -0.858685,-0.0798 -0.609369,0.0951 -1.282675,0.0279 -1.49623,-0.14938 -0.264752,-0.21973 -0.923376,-0.16335 -2.070134,0.1772 -0.925018,0.27471 -2.142128,0.49946 -2.704692,0.49946 -0.56256,0 -1.545638,0.21844 -2.184614,0.48542 -0.645168,0.26957 -1.551885,0.40294 -2.039078,0.29992 C 77.354787,133.80331 76.6,133.64389 76.16,133.55107 c -0.779594,-0.16446 -0.770064,-0.1842 0.373603,-0.77402 0.645482,-0.3329 2.013482,-0.69566 3.04,-0.80615 1.026519,-0.11049 2.842519,-0.48842 4.035559,-0.83985 1.496704,-0.44088 3.224515,-0.65324 5.57342,-0.68501 2.404836,-0.0325 3.44338,-0.16348 3.537508,-0.44605 0.07328,-0.22 0.553244,-0.4 1.066576,-0.4 0.513334,0 0.933334,-0.144 0.933334,-0.32 0,-0.176 0.468,-0.33435 1.04,-0.3519 0.572,-0.0175 1.4,-0.1593 1.84,-0.31502 0.566019,-0.20031 0.238448,-0.24153 -1.12,-0.14093 -1.056,0.0782 -6.584003,0.31648 -12.284451,0.52951 -9.600416,0.35876 -10.393389,0.34774 -10.756995,-0.14952 -0.339933,-0.46489 -0.874349,-0.51548 -3.987213,-0.37748 -1.977066,0.0876 -4.305178,0.37035 -5.173587,0.62824 -0.868407,0.25789 -1.79016,0.38783 -2.04834,0.28876 -0.258176,-0.0991 -0.469414,-0.0207 -0.469414,0.1741 0,0.19484 -0.432,0.35424 -0.96,0.35424 -0.528,0 -0.96,-0.1537 -0.96,-0.34156 0,-0.18786 -0.252,-0.26373 -0.56,-0.16858 -1.416144,0.43744 -2.940493,0.43922 -3.301814,0.004 -0.207101,-0.24956 -0.71042,-0.45373 -1.118484,-0.45373 -0.825452,0 -0.922009,-0.10634 -1.216448,-1.33965 -0.186934,-0.783 -0.114614,-0.8686 0.811114,-0.96 1.195824,-0.11807 1.654368,-0.89788 0.532298,-0.90525 -1.041079,-0.007 -1.463882,-0.34496 -1.594404,-1.2751 -0.100051,-0.71297 -0.250009,-0.79301 -1.378502,-0.73579 -0.696435,0.0353 -1.438429,-0.0787 -1.648883,-0.25336 -0.254979,-0.21161 -0.419968,-0.20558 -0.494525,0.0181 -0.141773,0.42532 -2.78303,0.66651 -3.024275,0.27618 -0.09897,-0.16014 -0.447149,-0.20634 -0.773741,-0.10269 -0.586077,0.18602 -3.74185,0.43799 -6.232336,0.49763 -0.704,0.0169 -2.864,-0.1091 -4.8,-0.2799 -3.354172,-0.29593 -3.610452,-0.37139 -5.44,-1.60173 -1.128366,-0.75881 -2.175328,-1.76949 -2.539263,-2.45127 -0.586851,-1.09939 -0.591038,-1.20789 -0.08,-2.073 0.663177,-1.12267 0.674667,-1.32603 0.06163,-1.09079 -0.373795,0.14344 -0.452321,-0.0341 -0.361209,-0.81662 0.06403,-0.54995 -0.0028,-1.07356 -0.148393,-1.16358 -0.333962,-0.2064 -0.0085,-1.10317 0.400355,-1.10317 0.167557,0 0.215652,0.144 0.106878,0.32 -0.108774,0.176 -0.04171,0.32 0.149035,0.32 0.190743,0 0.471484,-0.324 0.623869,-0.72 0.358677,-0.93209 1.703165,-1.89804 3.707096,-2.66337 0.88,-0.33608 1.672,-0.62055 1.76,-0.63215 0.612688,-0.0808 4.032333,-1.29142 4.165994,-1.4749 0.0913,-0.12532 0.523299,-0.28746 0.96,-0.36029 0.436704,-0.0728 1.154006,-0.30102 1.594006,-0.50706 0.635696,-0.29769 -0.02154,-0.33246 -3.2,-0.16928 -6.406966,0.32892 -9.050115,0.23437 -9.469173,-0.33873 -0.19876,-0.27181 -0.507875,-0.49421 -0.686922,-0.49421 -0.179047,0 -0.503489,-0.21441 -0.720981,-0.47647 -0.217492,-0.26207 -0.523124,-0.39757 -0.679182,-0.30112 -0.156058,0.0964 -0.283742,-0.0334 -0.283742,-0.28852 0,-0.58994 -4.15701,-0.7365 -4.513838,-0.15914 -0.162732,0.26331 -0.380481,0.21665 -0.759979,-0.16285 -0.292543,-0.29254 -0.665611,-0.5319 -0.82904,-0.5319 -0.163429,0 -0.297143,-0.1525 -0.297143,-0.33888 0,-0.18639 0.145017,-0.24926 0.32226,-0.13972 0.177243,0.10954 0.407849,-0.0239 0.512458,-0.29648 0.159014,-0.41438 0.288065,-0.37836 0.787094,0.21972 0.328293,0.39345 0.601687,0.5827 0.607542,0.42056 0.01972,-0.54593 -1.005476,-1.42357 -1.45942,-1.24938 -0.717516,0.27534 -0.520008,-0.4758 0.230762,-0.8776 0.485014,-0.25957 0.742213,-0.26475 0.894692,-0.018 0.222828,0.36054 0.782821,-0.18246 1.541157,-1.4944 0.374732,-0.6483 0.335128,-0.68372 -0.72,-0.64406 -0.978631,0.0368 -1.3091,0.26293 -1.036545,0.7093 0.117179,0.19191 -1.566111,1.46898 -1.936237,1.46898 -0.766603,0 -0.636428,-0.97485 0.187864,-1.40686 0.633888,-0.33223 0.868373,-0.70058 0.868373,-1.364132 0,-0.770448 -0.203578,-0.988237 -1.335588,-1.428813 -0.734574,-0.285894 -1.878916,-0.621734 -2.542982,-0.746313 -0.664066,-0.124583 -1.558471,-0.502669 -1.987566,-0.840196 -0.429096,-0.337526 -0.959122,-0.613683 -1.177836,-0.613683 -0.218715,0 -0.569824,-0.20744 -0.780242,-0.460979 -0.210418,-0.253539 -0.562401,-0.391974 -0.782184,-0.307635 -0.219783,0.08434 -0.569255,-0.218998 -0.7766036,-0.67408 -0.5020083,-1.101786 -0.4963952,-1.117306 0.4041166,-1.117306 0.429613,0 0.870111,-0.144 0.978885,-0.32 0.213032,-0.344691 -0.138218,-0.420902 -1.52,-0.329792 -0.484,0.0319 -0.88,-0.09231 -0.88,-0.276047 0,-0.183741 0.2099706,-0.253501 0.466601,-0.155021 0.728531,0.279561 0.992306,-1.352541 0.4144384,-2.564339 -0.442848,-0.928663 -0.4349508,-1.114624 0.090294,-2.126234 0.3165716,-0.609712 1.1474566,-1.662096 1.8464096,-2.338633 1.070172,-1.03585 1.23524,-1.364266 1.045448,-2.08 -0.170525,-0.643075 -0.455686,-0.873021 -1.171665,-0.94479 -0.625471,-0.0627 -1.160132,-0.413037 -1.577049,-1.03336 C 9.5330061,80.786129 9.4126624,80.73161 9.2243491,81.206634 9.0178182,81.727617 9.0036666,81.727226 8.9824912,81.20001 8.970121,80.891994 8.792,80.639994 8.5866666,80.639994 c -0.2053332,0 -0.2823997,-0.09093 -0.1712586,-0.202073 C 8.5265488,80.326778 8.481989,79.982673 8.316387,79.673242 8.0785034,79.228753 8.1648438,79.068561 8.7276454,78.910202 9.3835382,78.725652 9.3950803,78.683249 8.8732698,78.375214 8.561568,78.191207 8.3799824,77.921825 8.4697462,77.776587 8.5595101,77.631345 8.4185389,77.334564 8.1564768,77.11707 7.5446902,76.609332 7.5463446,76.159995 8.16,76.159995 c 0.6555718,0 0.6057558,-0.514375 -0.08,-0.826039 C 7.5458019,75.091172 7.2602128,75.035076 6.0100432,74.927374 5.6590883,74.897134 5.5272406,74.704993 5.645672,74.396366 5.7784688,74.050302 5.6845894,73.969019 5.3156291,74.110603 4.6791824,74.35483 4.637289,73.813396 5.2530886,73.302331 c 0.3609492,-0.299562 0.4936189,-0.248333 0.6523924,0.25192 0.1096169,0.345369 0.402816,0.796848 0.6515532,1.003283 0.3660087,0.30376 0.3560007,0.130307 -0.052482,-0.90959 C 6.2047077,72.884616 6.0859253,72.01995 6.2119365,71.517883 6.4412997,70.604027 9.087916,67.839995 9.733588,67.839995 c 0.2171684,0 0.728884,-0.355561 1.137147,-0.790137 0.408262,-0.434576 0.829364,-0.741738 0.93578,-0.682586 0.106417,0.05916 0.625485,-0.160857 1.153485,-0.488912 0.528,-0.328057 1.356,-0.754982 1.84,-0.94872 1.056501,-0.422902 1.177913,-1.010912 0.16,-0.774896 -1.626813,0.377197 -4.337952,0.382832 -5.8399998,0.01213 -1.8224371,-0.449763 -3.4077213,-0.412096 -4.8,0.114055 -0.8718288,0.329472 -0.904399,0.319593 -0.3546208,-0.107536 0.3329587,-0.258679 0.7649587,-0.524099 0.96,-0.589827 C 5.1611072,63.50413 5.1190717,63.268124 4.8,62.879634 4.3490784,62.33061 4.3652781,62.319336 5.0674067,62.693522 5.4784806,62.912597 5.886175,63.020479 5.9733946,62.93326 6.0606141,62.846037 5.6247139,62.533967 5.004727,62.239762 3.5708326,61.559336 2.8686191,60.490162 3.0280805,59.230169 c 0.1093212,-0.863808 0.05361,-0.949383 -0.4445127,-0.682797 -0.494029,0.264397 -0.5482086,0.190016 -0.4088437,-0.561299 0.08836,-0.476349 0.3191945,-0.969693 0.5129653,-1.096323 0.2533804,-0.165584 0.2432294,-0.406285 -0.03615,-0.857178 -0.3046137,-0.491622 -0.3046137,-0.661149 0,-0.785405 0.2984358,-0.121734 0.2932497,-0.225651 -0.022378,-0.448403 -0.6156361,-0.43448 -0.1541239,-1.243865 1.1594156,-2.033347 1.5809376,-0.950198 5.7216707,-3.012678 7.038678,-3.505936 0.58699,-0.219846 1.235403,-0.557168 1.440918,-0.749606 0.630846,-0.590707 3.857667,-2.120195 4.46187,-2.114893 0.313524,0.0029 0.652613,-0.210169 0.753532,-0.473158 0.100918,-0.262989 0.287684,-0.413763 0.415035,-0.335056 0.127351,0.07871 0.166231,-0.644522 0.0864,-1.607171 -0.131314,-1.583475 -0.09029,-1.729222 0.430476,-1.529386 0.455339,0.17473 0.53058,0.103508 0.360068,-0.340841 C 18.657,41.800429 18.56,41.405725 18.56,41.23226 c 0,-0.173466 -0.264531,-0.231431 -0.587847,-0.128816 -0.471385,0.149612 -0.666177,-0.07487 -0.983227,-1.133088 -0.36455,-1.216759 -0.339567,-1.379072 0.32039,-2.081565 1.414068,-1.505206 8.620529,-4.544595 10.262335,-4.328233 0.292409,0.03853 0.624907,-0.08083 0.738886,-0.265248 0.113979,-0.184423 0.467976,-0.335312 0.786661,-0.335312 0.318686,0 1.498187,-0.301824 2.621115,-0.67072 1.886196,-0.61964 2.565268,-0.779458 3.775021,-0.888441 0.817367,-0.07363 0.168797,-0.350511 -1.59774,-0.682084 -0.954576,-0.17917 -1.916916,-0.569518 -2.138531,-0.867438 -0.221616,-0.297921 -0.797616,-0.716648 -1.28,-0.930506 C 29.994678,28.706952 29.78,28.520282 30,28.505988 c 0.22,-0.01429 0.4,-0.353987 0.4,-0.754873 0,-0.400886 0.288,-0.975476 0.64,-1.276868 0.981782,-0.840629 0.770873,-1.193312 -0.72,-1.20398 -2.107123,-0.01507 -0.822415,-0.499337 2.48,-0.934817 1.584,-0.208877 4.392,-0.649577 6.24,-0.979333 1.848,-0.329755 4.8,-0.839448 6.56,-1.132648 1.76,-0.293202 4.208,-0.739341 5.44,-0.991421 1.232,-0.252081 4.184,-0.814276 6.56,-1.249322 2.376,-0.435047 5.328,-1.014622 6.56,-1.287944 1.232,-0.273322 3.032,-0.602888 4,-0.732368 0.968,-0.129481 2.264,-0.398084 2.88,-0.596896 0.616,-0.198812 1.984,-0.49873 3.04,-0.666485 1.056,-0.167755 2.28,-0.397401 2.72,-0.510325 1.064602,-0.273225 7.545056,-1.464268 8.96,-1.646758 0.616,-0.07945 1.48,-0.23951 1.92,-0.355693 0.44,-0.116183 0.909094,-0.187256 1.042432,-0.15794 0.133338,0.02932 0.925338,-0.104515 1.76,-0.297403 C 91.317094,13.538026 92.36,13.381205 92.8,13.382424 c 0.44,0.0012 1.52,-0.194676 2.4,-0.435323 1.450797,-0.396738 5.22711,-1.017257 7.68,-1.261966 4.87965,-0.486812 7.86069,-0.922632 8.8,-1.286534 0.9942,-0.385168 2.89463,-0.7205626 5.49293,-0.9694122 0.46911,-0.044929 1.33311,-0.2312419 1.92,-0.4140294 0.58689,-0.1827875 1.64307,-0.407512 2.34707,-0.4993878 0.704,-0.091876 1.712,-0.2429367 2.24,-0.3356903 0.528,-0.092753 1.752,-0.2536723 2.72,-0.357597 2.24406,-0.2409236 2.69445,-0.2964951 4.64,-0.5725072 0.88,-0.1248445 2.608,-0.3695949 3.84,-0.5438899 1.232,-0.1742947 3.176,-0.3828313 4.32,-0.4634144 1.144,-0.080583 3.16,-0.2941023 4.48,-0.4744873 1.32,-0.1803849 4.272,-0.4751907 6.56,-0.6551235 2.288,-0.1799331 4.952,-0.4929679 5.92,-0.6956335 0.968,-0.2026653 2.192,-0.4085325 2.72,-0.4574829 2.38669,-0.2212665 6.34848,-0.7892197 6.60315,-0.9466118 0.15449,-0.095479 1.25198,-0.2381463 2.43887,-0.3170377 1.18689,-0.078891 2.58998,-0.2010415 3.11798,-0.2714446 0.528,-0.070403 4.24714,-0.3762522 8.26475,-0.6796646 7.91636,-0.597848 8.74027,-0.5265472 10.71026,0.9268628 0.85131,0.6280768 0.94839,0.808872 0.52216,0.9724313 -0.28797,0.1105024 -0.44532,0.404832 -0.34968,0.6540656 0.36303,0.9460354 -3.14529,2.2934856 -5.70527,2.1912389 C 183.601,6.4545893 182.448,6.6236216 181.92,6.865413 c -0.528,0.2417913 -2.76,0.6716226 -4.96,0.9551807 -2.2,0.2835581 -5.728,0.8091087 -7.84,1.1678902 -2.112,0.3587817 -4.992,0.7740725 -6.4,0.9228687 -3.79191,0.4007254 -10.42134,1.3739684 -10.28536,1.5099544 0.0651,0.06505 1.39788,-0.01031 2.96182,-0.167474 3.07201,-0.308714 4.73636,0.04604 5.13902,1.095365 0.18264,0.47595 0.56095,0.510787 3.27551,0.301632 3.32428,-0.256134 8.06331,-0.475462 10.10901,-0.467858 7.26014,0.02699 14.90476,-0.0049 15.68,-0.06538 1.82578,-0.142463 2.72,0.02928 2.72,0.522406 0,0.350604 -0.36662,0.481321 -1.36,0.4849 -0.99599,0.0036 -1.23152,0.08793 -0.88,0.3151 0.264,0.17061 0.84,0.322526 1.28,0.337591 0.61836,0.02117 0.67551,0.0768 0.25172,0.244977 -0.66853,0.265307 -0.33644,0.910644 0.54828,1.065448 0.352,0.06159 0.73788,0.327984 0.85751,0.591984 0.17803,0.392882 0.22159,0.378362 0.24,-0.08 0.0162,-0.403891 0.29011,-0.56 0.98249,-0.56 1.14165,0 1.23005,0.232075 0.24,0.630028 l -0.72,0.289405 0.73028,0.02028 c 0.40165,0.01116 1.21019,-0.180239 1.79676,-0.425323 0.58657,-0.245083 1.25035,-0.331976 1.47506,-0.193095 0.25499,0.157595 -0.30011,0.406302 -1.47676,0.661646 -2.19577,0.476498 -3.31357,1.070306 -2.55949,1.359672 0.26108,0.100186 0.87957,0.102627 1.37442,0.0054 0.49485,-0.0972 1.11573,-0.205107 1.37973,-0.239785 0.41981,-0.05514 2.05427,-0.485042 3.96007,-1.041583 0.35293,-0.103062 0.51912,-0.04425 0.40353,0.142788 -0.10811,0.174914 0.0344,0.509706 0.3167,0.743984 0.44687,0.370873 0.22915,0.517618 -1.68353,1.13472 -1.20822,0.389818 -2.46301,0.718452 -2.78841,0.730298 -0.3254,0.01185 -1.0454,0.221781 -1.6,0.46652 -2.58919,1.14259 -3.8545,1.440664 -7.01395,1.652302 -2.48008,0.166131 -3.44563,0.350387 -3.5728,0.681805 -0.10212,0.266116 -0.035,0.368045 0.16222,0.246184 0.61731,-0.381518 1.58474,0.829162 1.36432,1.707369 -0.13947,0.555704 -0.0898,0.73376 0.16151,0.578467 0.23359,-0.144362 0.29507,-0.04729 0.17244,0.272271 -0.11391,0.296831 -0.0159,0.500535 0.24366,0.506351 0.28822,0.0065 0.24593,0.119413 -0.12576,0.335901 -0.58956,0.343386 -0.80288,2.214366 -0.25247,2.214366 0.16915,0 0.56515,0.264922 0.88,0.588716 0.46731,0.480569 1.04274,0.58344 3.13247,0.56 1.408,-0.0158 2.72491,-0.135889 2.92647,-0.266878 0.21299,-0.13842 0.45709,-0.0044 0.58285,0.32 0.19573,0.504872 0.2524,0.509687 0.59353,0.05043 0.67618,-0.910297 1.70059,-1.231848 3.55396,-1.11554 1.00147,0.06285 1.90264,0.196049 2.00259,0.296006 0.1,0.09996 0.55949,-0.002 1.02117,-0.226555 0.96347,-0.468624 3.9766,-0.394667 4.14204,0.101666 0.18582,0.557428 1.16197,0.370915 1.76895,-0.337993 0.55392,-0.646932 0.58929,-0.649703 1.02094,-0.08 0.35307,0.465983 0.45143,0.489158 0.4675,0.110146 0.0162,-0.382982 0.10911,-0.362942 0.45946,0.09915 0.27279,0.359798 0.51744,0.452386 0.64595,0.24446 0.26339,-0.426181 1.99948,-0.246723 2.50515,0.258956 0.44829,0.448285 -0.17361,0.984287 -1.1516,0.992535 -0.84295,0.0071 -1.81896,0.598375 -1.81896,1.101922 0,0.61504 0.95463,0.905797 1.49676,0.455874 0.36677,-0.304396 0.49096,-0.243064 0.63676,0.31448 0.21636,0.82738 0.51745,0.874165 1.10096,0.171077 0.36429,-0.438943 0.85784,-0.488879 3.11619,-0.315288 3.89113,0.299096 5.23803,0.708215 5.98063,1.816604 0.34578,0.516115 0.7967,0.938803 1.00203,0.939309 0.20534,6.4e-4 0.42682,0.161373 0.49219,0.357482 0.19387,0.581619 1.85448,0.631833 1.85448,0.05608 0,-0.398298 0.0899,-0.416429 0.47593,-0.09602 0.26175,0.217242 0.70979,0.305239 0.99563,0.195555 0.37532,-0.144025 0.46535,-0.06507 0.32407,0.284199 -0.1076,0.265997 -0.28303,0.699629 -0.38987,0.963629 -0.10683,0.264 -0.0348,0.479999 0.16,0.479999 0.49644,0 0.44096,1.039693 -0.11238,2.106256 -0.3167,0.610445 -0.41382,1.45601 -0.30228,2.631802 0.13076,1.378371 0.0463,1.863808 -0.41338,2.375507 -0.67442,0.750774 -3.62022,2.166435 -4.50805,2.166435 -0.33624,0 -1.07334,0.230477 -1.63801,0.512169 -0.56466,0.281693 -1.53286,0.526516 -2.15155,0.544055 -0.71426,0.02026 -1.43052,0.315133 -1.96215,0.80783 -0.46049,0.426771 -1.1864,0.775946 -1.61314,0.775946 -0.75154,0 -0.74214,0.0288 0.29965,0.917952 0.59154,0.504873 1.07553,1.050873 1.07553,1.213334 0,0.162458 0.0981,0.393459 0.21795,0.513331 0.34497,0.344963 -0.0773,1.115382 -0.61137,1.115382 -0.3982,0 -0.41254,0.08725 -0.0802,0.487735 0.46898,0.565091 0.51123,0.515392 -1.04642,1.230998 -0.66,0.303213 -1.2,0.667165 -1.2,0.808787 0,0.141619 0.972,0.517661 2.16,0.835645 2.78204,0.74465 3.6,1.119142 3.6,1.648201 0,0.235748 0.14268,0.428634 0.31706,0.428634 0.17838,0 0.25474,0.524877 0.17458,1.2 -0.13155,1.10791 -0.0354,1.280889 1.25256,2.254054 1.28843,0.973498 1.77576,2.145946 0.89196,2.145946 -0.18855,0 -0.45083,0.108 -0.58283,0.24 -0.132,0.132 0.036,0.243203 0.37334,0.247116 0.54246,0.0063 0.52089,0.07942 -0.18667,0.632884 l -0.8,0.625769 1.52,0.0071 c 0.836,0.0039 1.52,-0.136873 1.52,-0.312873 0,-0.176 -0.3168,-0.32 -0.704,-0.32 -0.48423,0 -0.60083,-0.103172 -0.37351,-0.33049 0.41291,-0.412912 1.39751,-0.06438 1.39751,0.494698 0,0.495008 2.2468,0.810467 4.8,0.673935 0.968,-0.05176 1.93169,0.03721 2.14152,0.197719 0.20984,0.160509 1.17417,0.335881 2.14296,0.389718 0.96878,0.05384 2.48971,0.35977 3.37982,0.67985 1.3436,0.483152 1.58518,0.686624 1.42277,1.198342 -0.13781,0.434192 -0.0803,0.54512 0.19442,0.375302 0.56084,-0.346614 0.94975,0.462298 0.6285,1.307248 -0.21439,0.563901 -0.12717,0.816999 0.4028,1.168893 0.82446,0.547421 0.51254,1.204784 -0.57168,1.204784 -0.92312,0 -0.98966,0.251133 -0.22111,0.834544 0.342,0.259616 0.40428,0.429062 0.16,0.43528 -0.22,0.0056 -0.4,0.21729 -0.4,0.470426 0,0.542025 -1.71553,2.497491 -2.30937,2.632364 -2.27219,0.516074 -3.96445,0.785824 -5.85063,0.932611 -1.232,0.09588 -2.75965,0.309495 -3.39478,0.474707 -0.63513,0.16521 -1.49913,0.282941 -1.92,0.261623 -0.42087,-0.02131 -1.41322,0.0558 -2.20522,0.171379 -0.792,0.115574 -2.088,0.286358 -2.88,0.379517 -0.792,0.09316 -2.016,0.309769 -2.72,0.48136 -0.704,0.17159 -2.03752,0.367513 -2.96338,0.435382 -0.92585,0.06787 -2.14985,0.265027 -2.72,0.438128 -0.57014,0.173098 -1.97262,0.413936 -3.11662,0.53519 -2.98397,0.316285 -3.00688,0.320365 -3.49639,0.622896 -0.88175,0.544954 -4.15045,1.073799 -4.279,0.692301 -0.0831,-0.246665 -0.28569,-0.221373 -0.65257,0.08147 -0.73765,0.608906 -0.66457,0.999917 0.18796,1.005718 0.58222,0.004 0.62815,0.06426 0.24,0.315101 -0.264,0.170611 -0.79372,0.312407 -1.17714,0.315101 -0.71272,0.005 -1.70286,0.76896 -1.70286,1.313853 0,0.368313 1.67752,-0.0016 1.96,-0.432387 0.12147,-0.185178 0.28595,-0.165831 0.41889,0.04927 0.28716,0.464646 1.69334,0.457472 1.84898,-0.0094 0.24569,-0.737062 10.04627,0.0075 10.55677,0.802045 0.12355,0.192291 0.94164,0.354396 1.81799,0.36024 0.87634,0.0059 1.69925,0.116528 1.82869,0.245968 0.12944,0.12944 0.49257,0.235347 0.80696,0.235347 0.78976,0 2.21407,0.681139 2.0339,0.972656 -0.22843,0.369597 1.26348,0.643699 2.62383,0.482067 0.86312,-0.10255 1.4241,0.02061 1.9027,0.417786 0.94038,0.780355 1.26764,1.916067 0.62335,2.163302 -0.60002,0.230253 -0.65738,1.120873 -0.10758,1.670668 0.31264,0.312644 0.23644,0.435812 -0.36732,0.593696 -0.72255,0.188951 -0.73147,0.221383 -0.17331,0.62952 0.52714,0.385456 0.53207,0.430304 0.0473,0.430304 -0.62164,0 -0.699,0.354164 -0.18879,0.864371 0.50807,0.508074 0.0392,2.322871 -0.6178,2.391325 -0.29401,0.03062 -0.96657,0.08364 -1.49457,0.117782 -0.528,0.03414 -2.23886,0.297082 -3.80192,0.584301 -1.56305,0.287223 -2.87539,0.522221 -2.9163,0.522221 -0.0409,0 -0.0522,0.324 -0.0251,0.72 0.0271,0.396 0.22927,0.682054 0.44927,0.63568 0.22,-0.04638 0.67678,0.06381 1.01507,0.244854 0.33829,0.18105 1.08846,0.405088 1.66704,0.497863 4.13938,0.66376 6.01196,1.267316 6.01196,1.937716 0,0.24116 0.288,0.61832 0.64,0.83815 1.4466,0.90342 0.20104,1.84574 -2.43972,1.84574 -0.87721,0 -1.36092,0.1248 -1.24028,0.32 0.26455,0.42806 3.55473,0.40956 4.36586,-0.0245 0.36525,-0.19548 0.56816,-0.5416 0.469,-0.8 -0.0961,-0.2505 -0.0552,-0.45546 0.091,-0.45546 0.32947,0 0.2686,4.49321 -0.0682,5.03144 -0.47925,0.76597 -2.3076,1.40969 -3.12581,1.10054 -0.71498,-0.27016 -4.11814,0.41244 -7.49192,1.5027 -0.528,0.17062 -1.824,0.5559 -2.88,0.85617 -1.056,0.30027 -2.11483,0.60183 -2.35295,0.67015 -1.40174,0.40213 -5.15331,1.07852 -5.98325,1.07874 -0.98237,2.7e-4 -2.69666,0.63215 -2.7013,0.99569 -10e-4,0.10749 -0.53904,0.15286 -1.1948,0.10083 -0.65577,-0.052 -1.34411,0.0314 -1.52965,0.18536 -0.18553,0.15398 -1.05299,0.4165 -1.92769,0.58338 l -1.59036,0.30342 2.56,0.0739 c 2.29144,0.0662 5.23664,0.0449 8.48,-0.0613 2.60508,-0.0853 11.20844,0.74127 12.00229,1.15313 0.46723,0.2424 1.14343,0.75622 1.50268,1.14182 l 0.65316,0.7011 -0.67485,0.9128 c -0.60931,0.82413 -0.62673,0.96093 -0.17928,1.40838 0.44745,0.44745 0.41142,0.57359 -0.37093,1.29865 -0.47659,0.44168 -1.21496,0.80306 -1.64083,0.80306 -0.42588,0 -1.04185,0.14318 -1.36883,0.31817 -0.93599,0.50093 -9.36811,1.02254 -9.63184,0.59583 -0.25721,-0.41618 -2.09408,-0.19887 -3.81157,0.45094 -1.12518,0.42571 -2.44472,0.55892 -7.24353,0.73124 -2.79206,0.10027 -5.50847,0.2532 -6.03647,0.33986 -0.528,0.0867 -2.184,0.22137 -3.68,0.29937 -1.496,0.078 -4.952,0.27971 -7.68,0.44826 -2.728,0.16855 -5.392,0.28863 -5.92,0.26683 -1.01666,-0.042 -7.0191,0.35266 -8.64,0.56801 -0.528,0.0702 -2.112,0.21824 -3.52,0.32907 -1.408,0.11084 -3.18937,0.40617 -3.95861,0.65628 -0.76923,0.25012 -1.65711,0.37271 -1.97307,0.27244 -0.31595,-0.10029 -0.65801,-0.0472 -0.76012,0.11808 -0.10212,0.16523 -1.23024,0.39894 -2.50694,0.51936 -1.27669,0.12042 -3.24242,0.42593 -4.36829,0.67891 -1.12587,0.25297 -2.10397,0.40301 -2.17357,0.33341 -0.0696,-0.0696 -1.14786,0.0681 -2.39613,0.30592 -1.24827,0.23784 -2.38208,0.36292 -2.51957,0.27794 -0.1375,-0.085 -0.65808,0.008 -1.15685,0.20762 -0.49877,0.19917 -1.33885,0.4108 -1.86685,0.47029 -0.528,0.0595 -1.824,0.26421 -2.88,0.45494 -1.056,0.19072 -2.92542,0.41161 -4.15426,0.49088 -1.22884,0.0793 -2.95684,0.34582 -3.84,0.59234 -2.29943,0.64187 -3.91244,0.9085 -5.95207,0.98388 -0.98248,0.0363 -1.94486,0.164 -2.13862,0.28375 -0.53073,0.32801 -3.19411,0.83946 -5.35505,1.02833 -1.056,0.0923 -2.784,0.36906 -3.84,0.61503 -1.90988,0.44487 -3.21083,0.66073 -5.876678,0.97507 -0.768176,0.0906 -1.64066,0.29527 -1.938855,0.45486 -0.298195,0.15959 -0.965689,0.24278 -1.483321,0.18488 -0.517629,-0.0579 -1.043677,-0.0431 -1.168996,0.0328 -0.125315,0.076 -1.486201,0.20277 -3.024185,0.28178 -2.00184,0.10284 -2.869021,0.0314 -3.052151,-0.25138 -0.202019,-0.31196 -0.310886,-0.30989 -0.517712,0.01 -0.343984,0.53177 -2.601084,1.67512 -3.306876,1.67512 -0.3044,0 -0.627856,-0.12038 -0.718791,-0.26752 -0.183219,-0.29645 -1.148985,-0.28974 -1.638061,0.0114 -0.172905,0.10645 -1.250374,0.36241 -2.394374,0.56879 -1.144,0.20638 -2.44,0.5233 -2.88,0.70427 -1.06249,0.43698 -3.616749,0.59882 -4.159254,0.26354 z M 76.16,122.04269 c 0,-0.0675 -0.36,-0.1227 -0.8,-0.1227 -0.44,0 -0.8,0.12403 -0.8,0.27563 0,0.15159 0.36,0.2068 0.8,0.12269 0.44,-0.0841 0.8,-0.20814 0.8,-0.27562 z M 186.2289,83.981626 c 0.40972,-0.403942 0.30874,-0.44552 -0.8,-0.329392 -2.40504,0.251901 -3.97689,0.588311 -3.83342,0.820438 0.25249,0.408541 4.13872,-0.0033 4.63342,-0.491046 z m 8.0911,-0.118857 c 0.81092,-0.01539 1.2,-0.169677 1.2,-0.47585 0,-0.372835 -0.60923,-0.424045 -3.44,-0.289155 -1.892,0.09015 -3.71347,0.157369 -4.04771,0.149369 -0.7272,-0.01741 -0.30722,0.461223 0.60771,0.69257 0.352,0.08901 1.504,0.113232 2.56,0.05383 1.056,-0.0594 2.46,-0.118244 3.12,-0.130768 z m -3.92,-2.548538 c 0,-0.503174 -0.7683,-0.56375 -1.92,-0.151379 l -1.12,0.401021 1.52,0.01805 c 0.836,0.0099 1.52,-0.110535 1.52,-0.267703 z m 9.83333,-0.867571 C 200.127,80.340327 199.851,80.328961 199.62,80.421412 c -0.25527,0.10215 -0.17945,0.177978 0.19333,0.193331 0.33734,0.01389 0.52634,-0.06174 0.42,-0.16807 z M 224.76,39.744717 c 0.0868,-0.140403 0.0356,-0.453014 -0.1138,-0.694694 -0.22581,-0.365363 -0.41101,-0.348061 -1.09889,0.102653 -0.45502,0.29814 -0.82731,0.610755 -0.82731,0.694697 0,0.261255 1.87335,0.166986 2.04,-0.102656 z m -50.936,-3.32872 c -0.29867,-0.298665 -0.46933,-0.298665 -0.768,0 -0.29867,0.298666 -0.21333,0.384 0.384,0.384 0.59733,0 0.68267,-0.08533 0.384,-0.384 z m 0.576,-2.175999 c 0,-0.176 -0.252,-0.317796 -0.56,-0.315101 -0.47858,0.0042 -0.49021,0.05 -0.08,0.315101 0.60391,0.390275 0.64,0.390275 0.64,0 z m -28,-22.061641 1.28,-0.264758 -1.12,0.0011 c -0.616,5.76e-4 -1.552,0.110986 -2.08,0.245339 -0.87464,0.222558 -0.88887,0.246005 -0.16,0.263698 0.44,0.01068 1.376,-0.09972 2.08,-0.24534 z m 2.464,-0.402358 c -0.29867,-0.298666 -0.46933,-0.298666 -0.768,0 -0.29867,0.298667 -0.21333,0.384 0.384,0.384 0.59733,0 0.68267,-0.08533 0.384,-0.384 z m 2.736,-0.156584 c -0.308,-0.08049 -0.812,-0.08049 -1.12,0 -0.308,0.08049 -0.056,0.146343 0.56,0.146343 0.616,0 0.868,-0.06585 0.56,-0.146343 z M 135.84,9.9199993 c 0.58613,-0.2518697 0.57267,-0.2764979 -0.16,-0.2926086 -0.44,-0.00968 -1.016,0.1219987 -1.28,0.2926086 -0.39618,0.2560287 -0.36823,0.3071277 0.16,0.2926087 0.352,-0.0097 0.928,-0.141349 1.28,-0.2926087 z M 67.717901,135.82337 c -0.12544,-0.3269 -0.05512,-0.42815 0.205763,-0.29627 0.217984,0.11019 0.151168,-10e-4 -0.14848,-0.24755 -0.482237,-0.39646 -0.188202,-0.51644 2.56,-1.04454 4.69584,-0.90238 4.370186,-0.87576 3.908589,-0.31957 -0.364682,0.43942 -0.233795,0.61847 0.38471,0.52629 0.125667,-0.0187 0.160179,0.14421 0.0767,0.3621 -0.09591,0.25031 -0.886887,0.41001 -2.148483,0.43378 -2.307284,0.0435 -4.076698,0.39013 -4.076698,0.7987 0,0.47333 -0.558653,0.31723 -0.762099,-0.21294 z M 78.66,136.1014 c 0.230998,-0.0924 0.506998,-0.0811 0.613334,0.0252 0.106333,0.10634 -0.08267,0.18197 -0.42,0.16807 -0.372784,-0.0154 -0.448608,-0.0912 -0.193334,-0.19333 z m -2.02,-1.38141 c -0.108774,-0.176 0.107226,-0.32 0.48,-0.32 0.372774,0 0.588774,0.144 0.48,0.32 -0.108774,0.176 -0.324774,0.32 -0.48,0.32 -0.155226,0 -0.371226,-0.144 -0.48,-0.32 z m -7.205261,-5.5826 c 0.540579,-0.29923 0.975517,-0.34317 1.36,-0.1374 0.869415,0.4653 0.686189,0.60101 -0.794739,0.58866 -1.327699,-0.0111 -1.341126,-0.0218 -0.565261,-0.45126 z M 29.76,123.19999 c -0.288413,-0.18639 -0.327883,-0.31216 -0.09889,-0.3151 0.209613,-0.003 0.470111,0.1391 0.578885,0.3151 0.245538,0.39729 0.134759,0.39729 -0.48,0 z m 194.64798,-20.16 c 0.0265,-0.352 0.16157,-0.64 0.30012,-0.64 0.13854,0 0.2519,0.288 0.2519,0.64 0,0.352 -0.13505,0.64 -0.30011,0.64 -0.16506,0 -0.27842,-0.288 -0.25191,-0.64 z M 214.02,97.701398 c 0.231,-0.09244 0.507,-0.08107 0.61333,0.02525 0.10634,0.106333 -0.0827,0.181965 -0.42,0.16807 -0.37278,-0.01536 -0.4486,-0.09118 -0.19333,-0.193331 z m 8.22,-4.901404 c 0.10877,-0.176 0.26127,-0.32 0.33889,-0.32 0.0776,0 0.14111,0.144 0.14111,0.32 0,0.175999 -0.1525,0.319999 -0.33889,0.319999 -0.18638,0 -0.24988,-0.144 -0.14111,-0.319999 z M 9.4665437,91.882941 C 9.328697,91.659901 9.3023328,91.390995 9.4079565,91.28537 c 0.2863875,-0.286388 0.5986455,0.134816 0.4439638,0.598864 -0.108392,0.325174 -0.1837654,0.324921 -0.3853766,-0.0013 z M 1.6,56.639996 c 0,-0.176 0.1524984,-0.32 0.3388854,-0.32 0.186387,0 0.2498886,0.144 0.1411146,0.32 -0.108774,0.176 -0.2612724,0.32 -0.3388854,0.32 -0.077613,0 -0.1411146,-0.144 -0.1411146,-0.32 z M 226.4,39.999997 c 0.10877,-0.176 0.26127,-0.32 0.33889,-0.32 0.0776,0 0.14111,0.144 0.14111,0.32 0,0.176 -0.1525,0.32 -0.33889,0.32 -0.18638,0 -0.24988,-0.144 -0.14111,-0.32 z m -6.56,-9.320086 c -2.60228,-0.702537 -3.8239,-1.953858 -1.48867,-1.52485 0.73077,0.13425 1.61667,0.289281 1.96867,0.344514 0.85446,0.134074 1.39521,0.644805 1.20567,1.138738 -0.17416,0.453837 -0.15998,0.453487 -1.68567,0.0416 z M 200.32,14.719999 c -0.75215,-0.240879 -0.73666,-0.258113 0.25889,-0.288102 0.63116,-0.01901 0.97899,0.09736 0.86111,0.288102 -0.10877,0.176 -0.22527,0.305646 -0.25889,0.288102 -0.0336,-0.01754 -0.42111,-0.147189 -0.86111,-0.288102 z m -7.06579,-2.26271 C 193.00439,12.29917 192.944,12.159196 193.12,12.146235 c 4.20118,-0.309363 4.96,-0.310389 4.96,-0.0067 0,0.187258 -0.612,0.35039 -1.36,0.362516 -0.748,0.01213 -1.73161,0.0717 -2.18579,0.13239 -0.45418,0.06069 -1.03018,-0.01903 -1.28,-0.177148 z"
       id="path12" />
</svg>
