<svg width="466" height="760" viewBox="0 0 466 760" fill="none" xmlns="http://www.w3.org/2000/svg">
<rect width="466" height="760" rx="30" fill="white"/>
<path d="M466 0H0C0 0 214 261.109 270 322.198C326 383.288 466 357.67 466 357.67V0Z" fill="#424242"/>
<path d="M466 0H0C0 0 310 34.4861 366 95.5757C422 156.665 466 357.67 466 357.67V0Z" fill="#424242"/>
<path d="M0 0H466C466 0 156 33.5316 100 92.9303C44 152.329 0 292.204 0 292.204V0Z" fill="#1BB8DA"/>
<path d="M0 0H466C466 0 307 107 244 281C181 455 0 292.204 0 292.204V0Z" fill="#1BB8DA"/>
<path d="M0 0H370C370 0 156 29.0803 100 80.5941C44 132.108 0 110.505 0 110.505V0Z" fill="#FFCD4B"/>
<path d="M0 0H370C370 0 156 29.0803 100 80.5941C44 132.108 0 110.505 0 110.505V0Z" fill="#FFCD4B"/>
</svg>
